<?xml version="1.0" encoding="UTF-8" standalone="no"?>
<svg
   height="276"
   viewBox="0 0 197 276"
   width="197"
   version="1.1"
   id="svg252"
   sodipodi:docname="mole-stress.svg"
   inkscape:version="1.2.1 (9c6d41e, 2022-07-14)"
   xmlns:inkscape="http://www.inkscape.org/namespaces/inkscape"
   xmlns:sodipodi="http://sodipodi.sourceforge.net/DTD/sodipodi-0.dtd"
   xmlns:xlink="http://www.w3.org/1999/xlink"
   xmlns="http://www.w3.org/2000/svg"
   xmlns:svg="http://www.w3.org/2000/svg">
  <defs
     id="defs256">
    <rect
       x="15.20339"
       y="10.525424"
       width="171.91525"
       height="49.118644"
       id="rect550" />
    <rect
       x="105.25424"
       y="10.525424"
       width="80.694915"
       height="66.661017"
       id="rect534" />
    <rect
       x="24.559322"
       y="12.864407"
       width="152.0339"
       height="45.610169"
       id="rect470" />
    <rect
       x="15.20339"
       y="10.525424"
       width="171.91525"
       height="49.118644"
       id="rect662" />
  </defs>
  <sodipodi:namedview
     id="namedview254"
     pagecolor="#ffffff"
     bordercolor="#000000"
     borderopacity="0.25"
     inkscape:showpageshadow="2"
     inkscape:pageopacity="0.0"
     inkscape:pagecheckerboard="0"
     inkscape:deskcolor="#d1d1d1"
     showgrid="false"
     inkscape:zoom="0.85507246"
     inkscape:cx="149.69492"
     inkscape:cy="194.13559"
     inkscape:window-width="1439"
     inkscape:window-height="916"
     inkscape:window-x="73"
     inkscape:window-y="38"
     inkscape:window-maximized="0"
     inkscape:current-layer="svg252" />
  <linearGradient
     id="a">
    <stop
       offset="0"
       stop-color="#f1aac2"
       id="stop187" />
    <stop
       offset="1"
       stop-color="#e5638f"
       id="stop189" />
  </linearGradient>
  <linearGradient
     id="b"
     x1="2.2984773"
     x2="31.923136"
     xlink:href="#a"
     y1="557.06475"
     y2="557.06475"
     gradientTransform="scale(0.86297194,1.1587862)"
     gradientUnits="userSpaceOnUse" />
  <linearGradient
     id="c"
     x1="219.64064"
     x2="190.01598"
     xlink:href="#a"
     y1="557.03274"
     y2="557.03274"
     gradientTransform="scale(0.86297194,1.1587862)"
     gradientUnits="userSpaceOnUse" />
  <linearGradient
     id="d"
     x1="62.982609"
     x2="111.33913"
     y1="122.21324"
     y2="177.28857"
     gradientTransform="scale(1.2009119,0.83270052)"
     gradientUnits="userSpaceOnUse">
    <stop
       offset="0"
       stop-color="#ffceae"
       id="stop194" />
    <stop
       offset="1"
       stop-color="#ffb280"
       id="stop196" />
  </linearGradient>
  <linearGradient
     id="e">
    <stop
       offset="0"
       stop-color="#8a8a8a"
       id="stop199" />
    <stop
       offset=".2857"
       stop-color="#f1f1f1"
       id="stop201" />
    <stop
       offset="1"
       stop-color="#fff"
       id="stop203" />
  </linearGradient>
  <linearGradient
     id="f"
     x1="88.02287"
     x2="117.51838"
     xlink:href="#e"
     y1="554.89535"
     y2="554.89535"
     gradientTransform="scale(0.83115052,1.2031515)"
     gradientUnits="userSpaceOnUse" />
  <linearGradient
     id="g"
     x1="109.79031"
     x2="139.28582"
     xlink:href="#e"
     y1="554.94237"
     y2="554.94237"
     gradientTransform="scale(0.83115053,1.2031515)"
     gradientUnits="userSpaceOnUse" />
  <g
     fill="none"
     fill-rule="evenodd"
     transform="matrix(0.80822182,0,0,0.82197701,22.727833,50.755901)"
     id="g250">
    <path
       d="m 94.768479,0.91010596 c -0.244483,0 -0.574453,0.037747 -0.839569,0.0419113 V 0.9939285 C 79.303018,1.1643139 43.746717,4.2595957 30.667405,36.129881 c -6.518855,-8.664686 -0.0054,0.0027 -21.0311976,-19.939758 0,0 -26.3800424,25.847487 9.6130626,44.203295 C 31.751254,176.3863 6.281022,220.95906 80.285918,219.36576 c 4.216193,-0.0908 8.844823,-0.0296 13.642992,0.084 h 0.125868 l 2.182879,0.0419 v -0.084 c 4.802443,-0.11378 9.423363,-0.17486 13.642993,-0.0839 74.00489,1.5933 48.53466,-42.97946 61.03665,-158.972348 35.9931,-18.355807 9.61306,-44.203295 9.61306,-44.203295 C 159.50484,36.09071 166.01802,27.42315 159.49916,36.087835 145.97832,3.1416663 108.37161,0.90990446 94.768411,0.90990446 Z"
       fill="#333333"
       stroke="#000000"
       stroke-width="5.81003"
       id="path208" />
    <path
       d="m 166.44382,194.15478 c 0,42.52865 -31.19782,77.00493 -69.682265,77.00493 -38.484447,0 -69.682262,-34.47628 -69.682262,-77.00493 0,-42.52865 31.197815,-77.00494 69.682262,-77.00494 38.484445,0 69.682265,34.47629 69.682265,77.00494 z"
       fill="#93939f"
       stroke="#000000"
       stroke-width="2.70513"
       id="path210" />
    <path
       d="m 95.720778,118.04386 c 37.427702,1.33074 67.417372,35.26197 67.417372,76.94648 0,39.34175 -26.69658,71.75813 -61.16259,76.40075 24.04803,-6.71398 42.23031,-38.11839 42.23031,-75.85503 0,-40.95348 -21.40369,-74.4579 -48.485092,-77.03043 z"
       fill="#7f7f8d"
       id="path212" />
    <path
       d="m 95.539848,116.90429 c -37.427707,1.33074 -67.417371,35.26197 -67.417371,76.94648 0,39.34175 26.69658,71.75813 61.162583,76.40076 -24.048029,-6.71399 -42.230308,-38.1184 -42.230308,-75.85504 0,-40.95348 21.403697,-74.4579 48.485096,-77.03043 z"
       fill="#c1c1c8"
       id="path214" />
    <path
       d="m 69.512625,29.448364 c -17.275141,0 -31.304402,16.219662 -31.304402,36.208075 0,19.988413 14.029261,36.206141 31.304402,36.206141 10.152052,0 19.159523,-5.606668 24.878531,-14.282973 5.717064,8.682109 14.745834,14.282973 24.903704,14.282973 17.26933,0 31.30053,-16.221584 31.30053,-36.206141 0,-19.984557 -14.0312,-36.208075 -31.30053,-36.208075 -10.15592,0 -19.18664,5.604746 -24.903704,14.28492 -5.719008,-8.674371 -14.728413,-14.28492 -24.878531,-14.28492 z"
       fill="#ffffff"
       stroke="#000000"
       stroke-width="5.48447"
       id="path216" />
    <path
       d="m 134.86615,32.948024 c 0.38218,2.297741 0.56362,4.684303 0.56362,7.110414 0,20.640399 -14.46421,37.372934 -32.30028,37.372934 -10.491232,0 -19.848833,-5.774032 -25.753522,-14.741065 -5.906682,8.961037 -15.18158,14.741065 -25.666796,14.741065 -5.201507,0 -10.125219,-1.416381 -14.480929,-3.945402 2.873074,17.24688 15.994398,30.30592 31.736648,30.30592 10.485233,0 19.803475,-5.823393 25.710158,-14.78443 5.904691,8.967033 15.218931,14.78443 25.710161,14.78443 17.83607,0 32.34364,-16.7759 32.34364,-37.416317 0,-14.625936 -7.2791,-27.281944 -17.8627,-33.427549 z"
       fill="#a5a5a5"
       opacity="0.3374"
       id="path218" />
    <g
       transform="translate(73.930691,58.411444)"
       id="g224">
      <path
         d="m 18.481708,9.6950045 c 0,5.0043735 -4.059275,9.0617115 -9.0636483,9.0617115 -5.0043731,0 -9.06171115,-4.057338 -9.06171115,-9.0617115 0,-5.0063097 4.05927475,-9.06364783 9.06171115,-9.06364783 5.0063093,0.001937 9.0636483,4.05733813 9.0636483,9.06364783 z"
         fill="#000000"
         stroke="#000000"
         stroke-width="3.47634"
         id="path220" />
      <path
         d="m 8.5000749,6.5207911 c 0,1.2975735 -1.0535523,2.3491891 -2.3511258,2.3491891 -1.2975735,0 -2.349189,-1.0516156 -2.349189,-2.3491891 0,-1.2975735 1.0516155,-2.3511257 2.349189,-2.3511257 1.2975735,0 2.3511258,1.0535522 2.3511258,2.3511257 z"
         fill="#ffffff"
         id="path222" />
    </g>
    <g
       transform="translate(97.170814,58.411444)"
       id="g230">
      <path
         d="m 18.193143,9.6950045 c 0,5.0043735 -4.057338,9.0617115 -9.0617115,9.0617115 -5.0063097,0 -9.06364781,-4.057338 -9.06364781,-9.0617115 0,-5.0063097 4.05733811,-9.06364783 9.06364781,-9.06364783 5.0063095,0 9.0617115,4.05733813 9.0617115,9.06364783 z"
         fill="#000000"
         stroke="#000000"
         stroke-width="3.47634"
         id="path226" />
      <path
         d="m 8.2095734,6.5207911 c 0,1.2975735 -1.0516156,2.3491891 -2.3491891,2.3491891 -1.2975735,0 -2.3491891,-1.0516156 -2.3491891,-2.3491891 0,-1.2975735 1.0516156,-2.3511257 2.3491891,-2.3511257 1.2975735,0 2.3491891,1.0535522 2.3491891,2.3511257 z"
         fill="#ffffff"
         id="path228" />
    </g>
    <path
       d="m 7.2630354,25.593709 c 0,0 -13.6451281,15.81534 10.0743146,30.810803 3.807988,-3.689347 4.352445,-4.34194 8.83182,-7.893813 V 45.656165 C 20.742708,42.696504 23.247538,38.825568 14.397919,27.824182 Z"
       fill="url(#b)"
       stroke="#000000"
       stroke-width="1.34331"
       id="path232"
       style="fill:url(#b)" />
    <path
       d="m 184.2642,26.297107 c 0,0 13.64512,15.815339 -10.07432,30.810803 -3.80799,-3.689348 -4.35244,-4.341941 -8.83182,-7.893814 v -2.854533 c 5.42646,-2.959662 2.92163,-6.830598 11.77125,-17.831984 z"
       fill="url(#c)"
       stroke="#000000"
       stroke-width="1.34331"
       id="path234"
       style="fill:url(#c)" />
    <path
       d="m 86.707665,120.29715 c 37.427705,1.33073 67.417375,35.26196 67.417375,76.94647 0,39.34175 -26.69658,71.75813 -61.162588,76.40076 24.048028,-6.71399 42.230308,-38.1184 42.230308,-75.85504 0,-40.95348 -21.4037,-74.4579 -48.485095,-77.03043 z"
       fill="#7f7f8d"
       id="path236" />
    <path
       d="m 95.052736,91.068694 c -11.545346,0 -21.502564,5.69108 -26.068609,13.889896 -10.531591,3.25271 -17.295116,8.35499 -17.295116,14.07942 0,1.57672 0.546069,3.12004 1.511223,4.57581 -0.725038,1.6887 -1.091439,3.44798 -1.091439,5.25272 0,13.04325 19.998917,23.61011 44.665057,23.61011 24.666138,0 44.665058,-10.56686 44.665058,-23.61011 0,-2.07588 -0.51806,-4.09276 -1.46924,-6.01085 0.66951,-1.2259 1.04946,-2.51178 1.04946,-3.81768 0,-6.26754 -8.12081,-11.77773 -20.40152,-14.94585 C 115.8502,96.358071 106.19029,91.068694 95.052736,91.068694 Z"
       fill="url(#d)"
       stroke="#000000"
       stroke-width="2.68662"
       id="path238"
       style="fill:url(#d)" />
    <path
       d="m 111.40326,98.953252 c 0,8.711148 -7.06178,15.772928 -15.772927,15.772928 -8.71115,0 -15.772931,-7.06178 -15.772931,-15.772928 0,-8.71115 7.061781,-15.772944 15.772931,-15.772944 8.711147,0 15.772927,7.06178 15.772927,15.772944 z"
       fill="#000000"
       id="path240" />
    <g
       stroke="#000000"
       id="g248">
      <path
         d="m 76.484512,132.95005 h 17.878072 v 27.24277 H 76.484512 Z"
         fill="url(#f)"
         stroke-width="3.04519"
         id="path242"
         style="fill:url(#f)" />
      <path
         d="m 94.581235,132.44419 h 17.878075 v 27.24277 H 94.581235 Z"
         fill="url(#g)"
         stroke-width="3.04519"
         id="path244"
         style="fill:url(#g)" />
      <path
         d="m 59.577894,123.73928 c 25.972872,14.49712 50.261976,12.1565 73.231486,-3.37991"
         stroke-width="5.37324"
         id="path246" />
    </g>
  </g>
  <text
     xml:space="preserve"
     id="text468"
     style="white-space:pre;shape-inside:url(#rect470);display:inline;fill:#000000" />
  <text
     xml:space="preserve"
     style="fill:#000000"
     x="76.016953"
     y="32.745762"
     id="text476"><tspan
       sodipodi:role="line"
       id="tspan474"
       x="76.016953"
       y="32.745762" /></text>
  <text
     xml:space="preserve"
     style="font-size:29.3333px;white-space:pre;inline-size:0;fill:#000000"
     x="92.948524"
     y="23.389832"
     id="text480"><tspan
       id="tspan478"
       x="65.491524"
       y="23.389832"
       style="font-size:29.3333px;text-align:center;text-anchor:middle" /></text>
  <text
     xml:space="preserve"
     id="text532"
     style="font-size:29.3333px;text-align:center;white-space:pre;shape-inside:url(#rect534);display:inline;fill:#000000" />
  <text
     xml:space="preserve"
     style="font-size:29.3333px;text-align:center;text-anchor:middle;white-space:pre;inline-size:222.089;display:inline;fill:#000000"
     x="42.101696"
     y="14.033898"
     id="text546" />
  <text
     xml:space="preserve"
     id="text548"
     style="font-size:26.6667px;text-align:center;white-space:pre;shape-inside:url(#rect550);display:inline;fill:#000000"
     transform="matrix(1.1671919,0,0,2.2160887,-20.567645,-32.35128)"><tspan
       x="42.645434"
       y="34.85423"
       id="tspan2496"><tspan
         style="font-family:'Arial Black';-inkscape-font-specification:'Arial Black, Normal';fill:#fd452b"
         id="tspan2494">STRESS</tspan></tspan></text>
</svg>
